<?xml version="1.0" standalone="no"?>
<!DOCTYPE svg PUBLIC "-//W3C//DTD SVG 20010904//EN"
 "http://www.w3.org/TR/2001/REC-SVG-20010904/DTD/svg10.dtd">
<svg version="1.0" xmlns="http://www.w3.org/2000/svg"
 width="700.000000pt" height="700.000000pt" viewBox="0 0 700.000000 700.000000"
 preserveAspectRatio="xMidYMid meet">
<metadata>
Created by potrace 1.11, written by Peter Selinger 2001-2013
</metadata>
<g transform="translate(0.000000,700.000000) scale(0.100000,-0.100000)"
fill="#000000" stroke="none">
<path d="M3425 6278 c-112 -15 -194 -53 -296 -140 -24 -20 -157 -130 -295
-245 -138 -115 -273 -227 -300 -250 -27 -23 -218 -182 -424 -354 -206 -171
-395 -329 -420 -349 -25 -21 -160 -134 -300 -251 -140 -116 -275 -229 -300
-250 -25 -20 -146 -122 -270 -224 -124 -103 -245 -204 -270 -225 -38 -32 -129
-108 -479 -399 -24 -20 -48 -47 -54 -61 -14 -33 -17 -100 -5 -123 10 -19 244
-302 288 -348 50 -53 121 -64 180 -28 27 17 369 296 390 319 3 3 111 93 240
200 129 107 246 205 260 217 14 11 126 105 250 208 124 102 245 204 270 225
25 21 122 102 215 179 94 78 179 149 190 159 11 9 140 117 288 239 147 123
277 232 290 243 12 10 99 82 192 160 94 78 179 149 190 158 138 117 238 197
245 197 5 0 328 -265 717 -590 389 -324 717 -597 728 -606 23 -19 108 -91 145
-123 14 -11 50 -41 80 -66 30 -25 66 -55 80 -67 14 -11 140 -116 280 -233 140
-116 266 -221 280 -233 14 -12 50 -42 80 -67 30 -25 60 -49 66 -55 6 -5 30
-26 54 -45 24 -19 48 -40 54 -45 6 -6 90 -75 186 -155 96 -80 184 -153 195
-164 42 -39 110 -76 140 -76 71 0 91 17 243 199 81 97 153 188 161 203 20 39
6 116 -27 148 -15 14 -148 126 -297 249 -424 352 -440 366 -445 371 -3 3 -27
24 -55 45 -27 22 -56 45 -63 52 -7 7 -32 28 -57 48 l-44 37 0 900 c0 845 -1
902 -18 936 -37 75 -26 73 -537 73 -497 0 -495 0 -533 -58 -16 -25 -18 -70
-23 -475 l-5 -449 -85 72 c-47 40 -105 88 -129 108 -62 51 -132 110 -161 135
-14 11 -66 54 -115 95 -50 41 -94 80 -100 86 -5 5 -30 26 -55 45 -25 19 -47
37 -50 40 -3 3 -75 64 -160 135 -85 71 -157 132 -160 136 -3 3 -36 27 -73 52
-108 74 -236 103 -372 85z"/>
<path d="M3322 5015 c-96 -79 -186 -154 -200 -167 -15 -12 -47 -39 -72 -58
-25 -19 -50 -39 -56 -45 -6 -5 -186 -154 -399 -330 -214 -176 -481 -397 -594
-490 -113 -94 -255 -211 -316 -260 -60 -49 -112 -92 -115 -95 -3 -3 -54 -46
-115 -95 -60 -49 -112 -92 -115 -95 -3 -3 -27 -23 -55 -45 -27 -21 -52 -42
-55 -45 -3 -3 -56 -47 -117 -99 l-113 -93 0 -96 c-3 -640 1 -2044 5 -2066 17
-86 101 -180 188 -208 37 -12 1726 -19 1742 -7 7 5 10 294 10 833 l-1 826 46
0 c71 1 917 1 995 0 l71 0 -1 -823 c-1 -452 0 -827 2 -832 5 -15 1706 -12
1752 3 35 12 94 53 124 87 23 26 57 91 63 119 7 32 6 2155 -1 2166 -3 5 -52
47 -109 94 -57 46 -115 93 -127 105 -13 11 -172 142 -354 291 -181 150 -341
282 -355 294 -14 11 -61 50 -105 86 -77 62 -183 150 -235 194 -14 12 -61 50
-105 86 -44 35 -85 69 -91 75 -6 5 -30 26 -54 45 -24 19 -87 71 -140 115 -54
44 -128 105 -165 135 -37 30 -73 60 -79 66 -6 5 -52 44 -102 85 -50 41 -177
145 -282 232 -105 86 -192 157 -194 156 -2 0 -81 -65 -176 -144z"/>
</g>
</svg>
