<?xml version="1.0" encoding="iso-8859-1"?>
<!-- Generator: Adobe Illustrator 19.0.0, SVG Export Plug-In . SVG Version: 6.00 Build 0)  -->
<svg version="1.1" id="Layer_1" xmlns="http://www.w3.org/2000/svg" xmlns:xlink="http://www.w3.org/1999/xlink" x="0px" y="0px"
	 viewBox="0 0 512 512" height="50px" width="50px" style="enable-background:new 0 0 512 512;" xml:space="preserve">
<path style="fill:#FF8C78;" d="M423.889,192.37L218.662,4.245c-3.067-2.809-7.769-2.809-10.835,0L2.6,192.37
	c-2.436,2.234-3.253,5.735-2.054,8.816c1.199,3.082,4.167,5.11,7.473,5.11h34.445V390.68c0,4.427,3.588,8.017,8.017,8.017h325.532
	c4.428,0,8.017-3.589,8.017-8.017V206.297h34.445c3.306,0,6.272-2.029,7.472-5.11C427.142,198.106,426.325,194.604,423.889,192.37z"
	/>
<path style="fill:#DF7A6E;" d="M2.6,192.37c-2.436,2.234-3.253,5.735-2.054,8.816c1.199,3.082,4.167,5.11,7.473,5.11h34.445V390.68
	c0,4.427,3.588,8.017,8.017,8.017h26.482V124.206L2.6,192.37z"/>
<path style="fill:#A7A6A6;" d="M256.001,233.019h-85.511c-4.428,0-8.017,3.589-8.017,8.017V390.68c0,4.427,3.588,8.017,8.017,8.017
	h85.511c4.428,0,8.017-3.589,8.017-8.017V241.036C264.017,236.608,260.428,233.019,256.001,233.019z"/>
<path style="fill:#918F90;" d="M170.489,233.019c-4.428,0-8.017,3.589-8.017,8.017V390.68c0,4.427,3.588,8.017,8.017,8.017h12.827
	V233.019H170.489z"/>
<path style="fill:#6DDAE1;" d="M344.867,238.134H286.85c-3.755,0-6.799,3.044-6.799,6.799v43.513c0,3.755,3.043,6.799,6.799,6.799
	h58.017c3.755,0,6.799-3.044,6.799-6.799v-43.514C351.667,241.178,348.622,238.134,344.867,238.134z"/>
<g>
	<path style="fill:#4FC4D4;" d="M286.849,238.134c-3.755,0-6.799,3.044-6.799,6.799v30.368l37.167-37.167H286.849z"/>
	<path style="fill:#4FC4D4;" d="M344.867,238.134h-8.159l-54.882,54.882c1.243,1.366,3.03,2.229,5.024,2.229h21.303l43.514-43.513
		v-6.799C351.667,241.178,348.622,238.134,344.867,238.134z"/>
	<path style="fill:#4FC4D4;" d="M327.082,300.359h22.981c4.428,0,8.017-3.589,8.017-8.017v-22.981L327.082,300.359z"/>
</g>
<path style="fill:#6DDAE1;" d="M139.927,237.89H81.413c-3.787,0-6.857,3.07-6.857,6.857v43.885c0,3.787,3.07,6.857,6.857,6.857
	h58.513c3.787,0,6.857-3.07,6.857-6.857v-43.885C146.784,240.96,143.714,237.89,139.927,237.89z"/>
<g>
	<path style="fill:#4FC4D4;" d="M81.87,237.89c-3.787,0-6.857,3.07-6.857,6.857v30.628l37.485-37.485H81.87z"/>
	<path style="fill:#4FC4D4;" d="M140.383,237.89h-8.228l-55.351,55.351c1.254,1.378,3.056,2.248,5.067,2.248h21.486l43.885-43.885
		v-6.857C147.241,240.96,144.171,237.89,140.383,237.89z"/>
	<path style="fill:#4FC4D4;" d="M122.389,300.359h22.981c4.428,0,8.017-3.589,8.017-8.017v-22.981L122.389,300.359z"/>
</g>
<g>
	<path style="fill:#E9E9E9;" d="M342.046,249.052v35.273h-52.376v-35.273H342.046 M350.063,233.019h-68.409
		c-4.428,0-8.017,3.589-8.017,8.017v51.307c0,4.427,3.588,8.017,8.017,8.017h68.409c4.428,0,8.017-3.589,8.017-8.017v-51.307
		C358.08,236.608,354.491,233.019,350.063,233.019L350.063,233.019z"/>
	<path style="fill:#E9E9E9;" d="M137.354,249.052v35.273H84.978v-35.273H137.354 M145.37,233.019H76.961
		c-4.428,0-8.017,3.589-8.017,8.017v51.307c0,4.427,3.588,8.017,8.017,8.017h68.409c4.428,0,8.017-3.589,8.017-8.017v-51.307
		C153.387,236.608,149.798,233.019,145.37,233.019L145.37,233.019z"/>
</g>
<g>
	<path style="fill:#FFD6C4;" d="M260.434,90.9c-3.132-3.131-8.207-3.131-11.338,0l-86.415,86.415
		c-2.918,2.918-3.113,7.74-0.425,10.877c2.998,3.502,8.503,3.72,11.764,0.46l86.415-86.415
		C263.565,99.107,263.565,94.031,260.434,90.9z"/>
	<path style="fill:#FFD6C4;" d="M245.312,147.508c-13.851,0-25.119,11.268-25.119,25.119c0,13.851,11.268,25.119,25.119,25.119
		c13.851,0,25.119-11.268,25.119-25.119C270.431,158.776,259.163,147.508,245.312,147.508z M245.312,181.712
		c-5.01,0-9.086-4.076-9.086-9.086s4.076-9.086,9.086-9.086s9.086,4.076,9.086,9.086S250.321,181.712,245.312,181.712z"/>
	<path style="fill:#FFD6C4;" d="M181.178,133.612c13.851,0,25.119-11.268,25.119-25.119s-11.268-25.119-25.119-25.119
		c-13.851,0-25.119,11.268-25.119,25.119S167.328,133.612,181.178,133.612z M181.178,99.408c5.01,0,9.086,4.076,9.086,9.086
		s-4.076,9.086-9.086,9.086s-9.086-4.076-9.086-9.086S176.168,99.408,181.178,99.408z"/>
</g>
<g>
	<path style="fill:#7B7979;" d="M401.37,406.714H33.137c-4.428,0-8.017-3.589-8.017-8.017c0-4.427,3.588-8.017,8.017-8.017H394.83
		l67.095-327.088c0.764-3.729,4.046-6.406,7.853-6.406h34.205c4.428,0,8.017,3.589,8.017,8.017c0,4.427-3.588,8.017-8.017,8.017
		h-27.665l-67.095,327.088C408.458,404.037,405.176,406.714,401.37,406.714z"/>
	<path style="fill:#7B7979;" d="M307.307,408.317c-27.995,0-50.772,22.777-50.772,50.772c0,27.995,22.777,50.772,50.772,50.772
		c27.995,0,50.772-22.777,50.772-50.772C358.08,431.094,335.303,408.317,307.307,408.317z"/>
	<path style="fill:#7B7979;" d="M136.285,408.317c-27.995,0-50.772,22.777-50.772,50.772c0,27.995,22.777,50.772,50.772,50.772
		s50.772-22.777,50.772-50.772C187.057,431.094,164.28,408.317,136.285,408.317z"/>
</g>
<g>
	<path style="fill:#FFD791;" d="M307.307,433.97c-13.851,0-25.119,11.268-25.119,25.119s11.268,25.119,25.119,25.119
		s25.119-11.268,25.119-25.119S321.158,433.97,307.307,433.97z"/>
	<path style="fill:#FFD791;" d="M136.285,433.97c-13.851,0-25.119,11.268-25.119,25.119s11.268,25.119,25.119,25.119
		c13.851,0,25.119-11.268,25.119-25.119S150.136,433.97,136.285,433.97z"/>
</g>
<g>
</g>
<g>
</g>
<g>
</g>
<g>
</g>
<g>
</g>
<g>
</g>
<g>
</g>
<g>
</g>
<g>
</g>
<g>
</g>
<g>
</g>
<g>
</g>
<g>
</g>
<g>
</g>
<g>
</g>
</svg>
